<?xml version="1.0" encoding="UTF-8"?>
<svg id="_レイヤー_1" data-name="レイヤー_1" xmlns="http://www.w3.org/2000/svg" version="1.1" viewBox="0 0 512 512">
  <!-- Generator: Adobe Illustrator 29.6.0, SVG Export Plug-In . SVG Version: 2.1.1 Build 207)  -->
  <defs>
    <style>
      .st0 {
        fill: none;
      }

      .st1 {
        fill: #fff;
      }
    </style>
  </defs>
  <circle class="st1" cx="254.8" cy="256.1" r="256"/>
  <g>
    <path d="M353.5,140.8c20.8,18.5,38.8,44.4,51,69.5,6.5,13.3,10.5,28.3,12.6,42.9s2.3,16.2,1.3,23.3c-.8,5.7-1.4,12.6-3.1,18.7s-.9.8-1,.9c-.7,2.3-1.7,7-2.7,9s-.7.2-1.5,3.2c-1.2,4.2-9.3,17.6-12.6,20.3-5.4,4.5-11.5,9.9-18.5,13.4s-12.9,4.8-17.8,4.8-4.8-1.6-1.7-4.1l2.8.7s-.3-.6-.2-.9c.6-1.1,7.2-3.1,8.9-4.3s3.3-2.9,5.3-4.2,3.1-2.4,4.4-3.2,2.9-.6,3-.7-.1-.7.1-1.1c.8-1.1,1.9-1.8,3.3-1.4-.8-2.4,2.3-2.5,2.9-3.1s.2-1.4.5-1.8,1.7-1.8,2.1-2.2c.7-.7,1.8-1,2.4-1.9l.6.8-.4-2.5,2.5-.9-.8-1.5c2.6-1.3,2.4-4.8,3.7-6.9s1-.7,1.3-1.3c1.1-1.9.9-3.5,1.5-5.1s1.5-1,1.5-1.1c.2-.4-.4-1.1-.3-1.7.2-1.5,2.1-5.7,2.7-7.6s-.6-2.4,1.5-2.1v-.8s-.9,0-.9,0c1.6-1.4.1-1.8,0-2.3s1.3-1.3,1.4-2.7c.3-2.5.8-5.3,1-8s-.5-1.7-.4-2.5,1,0,.9-.9-1-1.6-1.1-2.2c-.2-1.1.7-3.3.6-4.3s-1.4-2.6-1.5-3.8c0-3.7,0-7.5-.7-11.5s-1.7-1.6,0-3.2c-2.4-.4-1.1-3.6-1.8-5.3s-1.1-.6-1.2-1c-.5-1.9-.2-5.4-.5-6.7s-1.2-.8-1.6-1.5c-.8-1.2-1-3.8-1.5-5.2-11.3-32-39.1-70.5-67.7-90.6s-54.5-23.6-83.8-20.3c-7.7.9-13.3,3.8-20.1,7.2-3.2.6-6.1-1.4-9-2.1-30.9-7.1-56.6,4.1-77,27.1s-44.2,72.5-45.7,113.9c-1.4,37.1,16,72.2,57.4,71.5,3.4,0,6.7-1.3,10,0-2.8-7.4-5.8-14.9-8-22.5-5.7-20.3-6.4-38.3-6.6-59.3s-1.1-2.4-.3-4c-1.2.3-2.2-.5-3.2-.6-5.9-1-14.6,1.3-17.8,6.7-5.8,9.7-5,21.9,0,31.8s9.1,12,14.1,15.3c3.4,2.3,4.6.7,3.6,6.5-3.1.2-6.3-1.2-8.9-2.8-9-5.5-16.5-16.1-19.2-26-.5-1.7-2-6.3-.4-6.8-2.1-5.6.4-16.9,3.9-21.7s5.3-6.7,8.4-8.3,10.9-3.4,14.3-3.1,3.9,1.2,5.9,1.1c1-.6,1.1-6.2,1.4-7.6s1.4-6.5,1.6-6.8,2.4-1.7,2.6-1.8c6.6-2.9,16.1-2.4,23.5-5.1,24.3-8.7,41.1-29.9,50.5-53.2,2.6-6.3,4-14.5,6.9-20.5s1.9-3.3,2.1-3.4c2.4-1.4,5.2-.2,7.2,1.3,4.1,3.1,9.6,10.3,13,14.3,12.4,14.3,23.9,29.8,36.3,43.9s33.1,31.6,49.7,30.5c6.3-.4,13-4.1,19.2-3.8,38.7,1.9,46.6,45.6,21.1,69.8s-11.3,9.8-15.7,11.6-4.5,1.1-5.1,1.5c-1.3,1-1.5,5.9-2,7.6s-2.4,5-3.2,7c-4.2,10.4-8.4,22.6-15.2,32.2s-3,2.4-3.4,3-.5,2.1-1.3,3.4c-6,8.4-18.1,19.7-26.8,25.9s-7.1,4.8-8.8,5.5-1.9-.5-2.1-.2.1,1-.4,1.5-5.1,2.3-6,2.6-2.4-.5-3.2,1.5c-1.9-.9-1.1.2-2,.5-3.9,1.6-9.6,2.9-13.8,3.7-44.2,8.1-83-19.6-104.3-56.9-2.5-4.4-4.6-9-7-13.5-1.4.7-1.6,2-3.1,2.9-8.2,5-22.1,3-30.7-.2-39-15-45.1-55.8-39.8-92.8,5.2-36.5,24.4-77.7,49.9-103.8,20.3-20.8,43.7-32,73.5-26.9,4.4.8,8.5,2.7,12.9,3.7,7.8-9,22-10.7,33.3-11,34.6-1,65.8,12,91.4,34.7ZM262.5,172.5c-5.4-6.8-10.8-13.4-16.1-20.3s-2.3-3.4-3.4-5.1c-.5.5-1.1,1-1.3,1.7-1.1,3.3-1.4,8.3-2.5,12.1-3.9,14.7-13.8,31.6-23.8,42.8s-28.6,22.5-46.7,25.4c-1.1.2-7.9.6-8.2.9-.4,3.7-1.4,7.6-1.7,11.3-4.5,42.7,6.3,90.9,34.8,123.5,12.9,14.7,31.6,28,51.3,31.5,13.4,2.4,30.5,2.2,41.8-2.9,1.6-.7,3.3-.4,3.5-.5,1.1-.4,7-3.8,8.7-4.7,13.5-7.4,21.1-15.9,31.8-26,.3-.3.2-1.5.8-2.3,7.7-10.2,14.6-20.9,19.2-32.4,1.3-3.3,2.2-7.1,3.2-10.4s2.9-8.3,3.7-12.7c.6.1,1,.4,1.7.2,1.7-.3,5.2-3.5,7.3-4.3s2,0,2.6-.4.3-1.1.7-1.5c.6-.7,2-.7,2.7-1.1,11.7-7.6,20.8-18,21.4-32.4s-2.8-15.2-8.1-21c-4.6-5-9-7.9-16.5-8.5s-4.3.3-7.9,1.8c-6.4,2.6-14.8,4.7-22.3,3.6s-8.7-2.7-11.1-3.8-4-3.1-6.2-2.8c1.4.9.2,1.5-.4,2.6h-.5c-3.7-1.4-6-5.4-9.7-6.9-15.1-6.4-30.1-1.1-44.9,2.7s-1.4.6-1.5.7c-.7,0-2.5-.8-3.6-.5.5-1.7-1.3-3.3-1.3-4-.1-1.3,1.3-1.8,1.6-2.7s-.4-1.4-.2-1.7c.8-1.4,7.6-2.3,9.3-2.5s4-.9,4.7-.9,1.2.6,1.8.6c.8,0,2.1-.9,3.2-1.1,4.2-.5,9.3-.3,13.6-.4l10.5,1.9-3.9-3.8c-14.1-13.4-25.7-29.9-37.8-45.2Z"/>
    <path class="st0" d="M262.5,172.5c12.1,15.4,23.7,31.8,37.8,45.2l3.9,3.8-10.5-1.9c-4.3.1-9.4-.1-13.6.4s-2.4,1-3.2,1.1-.9-.6-1.8-.6-3.4.7-4.7.9-8.5,1.1-9.3,2.5.4,1,.2,1.7c-.3,1-1.7,1.5-1.6,2.7s1.8,2.3,1.3,4c1.1-.4,2.9.5,3.6.5s.2-.3,1.5-.7c14.8-3.8,29.8-9.1,44.9-2.7,3.7,1.6,6,5.5,9.7,7h.5c.6-1.1,1.8-1.7.4-2.6,2.2-.3,4.2,1.9,6.2,2.8s8.7,3.5,11.1,3.8c7.5,1.1,15.9-1,22.3-3.6,3.5-1.4,3.5-2.1,7.9-1.8,7.5.6,11.9,3.5,16.5,8.5,5.3,5.8,8.4,12.7,8.1,21-.6,14.4-9.7,24.8-21.4,32.4s-2,.4-2.7,1.1-.3,1.3-.7,1.5c-.5.4-1.7,0-2.6.4-2,.8-5.6,4-7.3,4.3s-1.1-.1-1.7-.2c-.8,4.4-2.4,8.5-3.7,12.7s-1.9,7.2-3.2,10.4c-4.7,11.5-11.5,22.2-19.2,32.4s-.5,2-.8,2.3c-10.7,10.1-18.4,18.6-31.8,26-1.7.9-7.6,4.3-8.7,4.7s-1.9-.2-3.5.5c-11.3,5.1-28.4,5.3-41.8,2.9-19.7-3.5-38.4-16.8-51.3-31.5-28.5-32.5-39.3-80.7-34.8-123.5.4-3.7,1.3-7.6,1.7-11.3.3-.3,7.1-.8,8.2-.9,18.1-2.9,34.6-11.6,46.7-25.4s19.8-28.1,23.8-42.8,1.3-8.8,2.5-12.1.8-1.2,1.3-1.7c1.2,1.6,2.2,3.5,3.4,5.1,5.3,7,10.8,13.5,16.1,20.3ZM219.1,231.2c-3.3-2.5-5-3.4-9.1-3.9-6.7-.8-13.9,0-20,.9-7.2,1.1-14.9,7.2-18.8,13.3s-4.1,6.4-1.6,7.2,3.3-2.3,4.6-3.8c7.2-8.2,15.7-11.3,26.8-9.7s.9.7,1.8.7c3.9.3,7.9-.2,11.8.8-.4-1.8,1-1.1,2.1-1.9s1.1-2.2,2.5-2.4v-1.1ZM311.2,271.9c6.1-6.5,6-24.6-3.2-27.8-14.8-5-31.2,6.5-37.4,19.3s-3.3,8,1.9,8.2,3.3-3.7,4.5-5.6c2.5-4,4.6-6.7,8.5-9.4s9.4-5.8,14.5-5.4c.4,1.3-.6,1-.9,1.9-.6,2.1-1.4,6.6,0,8.3-2.5.3-.4,2.5-.1,3.8s-.3,2.1.6,3.7,4.3,4.8,6,5.1,4.4-.6,5.7-2ZM234,250.1c-.4-.4-1.2-.7-1.6-1.2-.7-1.1.8-1.5-1.5-3.1-5.2-3.7-18.2.8-23.4,3.8s-13.5,10.9-16.4,17.7-2.3,4.9-.4,7.7,3.9,0,4.9-.7l3.4-7.5c4.9-5.8,10.2-10.6,17.5-13.2.7-.2,5.1-1.5,5.3-1.3-.2,3.5-1.9,6.9-2.1,10.4-.5,5.8.8,11.6,6.1,14.4s.4.7.7.8c2.7.6,6.1-.9,7.3-3.3,2.8-5.4,4.4-19.6.3-24.2ZM248.1,314.5c-.5-.5-1.4-.7-1.7-1.4-4.7-21.7.5-44.7,3.6-66.4l-.2-1.5c-.4-1.3-2.9-.5-3.5.1-1.2,1.1-3.1,14.5-3.5,17.2-1.6,11.1-3.2,24.2-3.1,35.4s.9,17.6,5.7,22.7,13.2,7.8,13,1.2-4.6-3.2-6.5-4.1-2.6-2-3.8-3.2ZM259.2,344.3c-1.8-1.5-7.6.6-10.3.3s-4.3-1.6-7.2-1.2-4,3.3-2,5.7c3.1,3.7,16.4,4.4,19.6.4s1.1-4.2-.1-5.2Z"/>
    <path d="M234,250.1c4.1,4.6,2.5,18.8-.3,24.2s-4.6,3.9-7.3,3.3-.3-.6-.7-.8c-5.3-2.7-6.5-8.6-6.1-14.4s1.9-6.9,2.1-10.4c-.2-.2-4.6,1.1-5.3,1.3-7.3,2.6-12.6,7.4-17.5,13.2l-3.4,7.5c-1.1.8-4.1,1.9-4.9.7-2-2.7-.9-4.8.4-7.7,3-6.8,10-14,16.4-17.7s18.2-7.4,23.4-3.8.8,2.1,1.5,3.1,1.2.8,1.6,1.2Z"/>
    <path d="M311.2,271.9c-1.3,1.4-3.8,2.3-5.7,2s-5.2-3.6-6-5.1-.3-2.4-.6-3.7-2.4-3.5.1-3.8c-1.4-1.7-.7-6.2,0-8.3s1.3-.6.9-1.9c-5.1-.4-10.4,2.5-14.5,5.4s-6,5.5-8.5,9.4-1.9,5.7-4.5,5.6c-5.2-.1-3.4-5.1-1.9-8.2,6.3-12.9,22.6-24.4,37.4-19.3s9.3,21.3,3.2,27.8Z"/>
    <path d="M248.1,314.5c1.2,1.2,2.1,2.4,3.8,3.2s6.4,1.2,6.5,4.1c.2,6.6-10.6,1.3-13-1.2-4.8-5-5.6-15.9-5.7-22.7-.2-11.2,1.4-24.2,3.1-35.4s2.3-16.1,3.5-17.2,3.1-1.4,3.5-.1l.2,1.5c-3.1,21.7-8.3,44.7-3.6,66.4.4.7,1.2.9,1.7,1.4Z"/>
    <path d="M219.1,231.2v1.1c-1.4.2-1.6,1.8-2.5,2.4s-2.5.1-2.1,1.9c-3.8-1-7.8-.5-11.8-.8s-1.3-.7-1.8-.7c-11.1-1.6-19.6,1.5-26.8,9.7-1.3,1.5-2.2,4.5-4.6,3.8s.8-5.8,1.6-7.2c3.8-6.1,11.5-12.2,18.8-13.3,6.1-.9,13.3-1.7,20-.9s5.8,1.5,9.1,3.9Z"/>
    <path d="M259.2,344.3c1.2,1,1.1,4,.1,5.2-3.2,4-16.5,3.3-19.6-.4s-1.4-5.3,2-5.7,4.6,1,7.2,1.2,8.5-1.8,10.3-.3Z"/>
  </g>
</svg>